<?xml version="1.0" encoding="UTF-8" standalone="no"?>
<!-- Created with Inkscape (http://www.inkscape.org/) -->

<svg
   xmlns:dc="http://purl.org/dc/elements/1.1/"
   xmlns:cc="http://creativecommons.org/ns#"
   xmlns:rdf="http://www.w3.org/1999/02/22-rdf-syntax-ns#"
   xmlns:svg="http://www.w3.org/2000/svg"
   xmlns="http://www.w3.org/2000/svg"
   xmlns:sodipodi="http://sodipodi.sourceforge.net/DTD/sodipodi-0.dtd"
   xmlns:inkscape="http://www.inkscape.org/namespaces/inkscape"
   width="300"
   height="300"
   viewBox="0 0 300.00001 300.00001"
   id="svg3417"
   version="1.1"
   inkscape:version="0.91 r13725"
   sodipodi:docname="Logo.svg">
  <defs
     id="defs3419" />
  <sodipodi:namedview
     id="base"
     pagecolor="#ffffff"
     bordercolor="#666666"
     borderopacity="1.0"
     inkscape:pageopacity="0.0"
     inkscape:pageshadow="2"
     inkscape:zoom="2.0233333"
     inkscape:cx="147.97323"
     inkscape:cy="173.30696"
     inkscape:document-units="px"
     inkscape:current-layer="layer1"
     showgrid="false"
     units="px"
     showborder="true"
     inkscape:showpageshadow="false"
     inkscape:snap-object-midpoints="false"
     inkscape:snap-grids="true"
     inkscape:snap-page="false"
     inkscape:snap-bbox="true"
     inkscape:bbox-paths="false"
     inkscape:snap-bbox-midpoints="true"
     inkscape:snap-center="false"
     inkscape:snap-text-baseline="false"
     inkscape:window-width="1301"
     inkscape:window-height="744"
     inkscape:window-x="65"
     inkscape:window-y="24"
     inkscape:window-maximized="1" />
  <metadata
     id="metadata3422">
    <rdf:RDF>
      <cc:Work
         rdf:about="">
        <dc:format>image/svg+xml</dc:format>
        <dc:type
           rdf:resource="http://purl.org/dc/dcmitype/StillImage" />
        <dc:title></dc:title>
      </cc:Work>
    </rdf:RDF>
  </metadata>
  <g
     inkscape:label="Layer 1"
     inkscape:groupmode="layer"
     id="layer1"
     transform="translate(0,-752.36208)">
    <circle
       style="opacity:1;fill:#ff4700;fill-opacity:1;fill-rule:evenodd;stroke:#3f2500;stroke-width:1px;stroke-linecap:butt;stroke-linejoin:miter;stroke-opacity:1"
       id="path3465"
       cx="150"
       cy="902.36206"
       r="70.181221" />
    <g
       transform="scale(0.75665078,1.3216136)"
       style="font-style:italic;font-variant:normal;font-weight:500;font-stretch:normal;font-size:77.92001343px;line-height:125%;font-family:'URW Chancery L';-inkscape-font-specification:'URW Chancery L, Medium Italic';text-align:start;letter-spacing:0px;word-spacing:0px;writing-mode:lr-tb;text-anchor:start;fill:#ffffff;fill-opacity:1;stroke:none;stroke-width:1px;stroke-linecap:butt;stroke-linejoin:miter;stroke-opacity:1"
       id="text5171">
      <path
         d="m 105.18181,691.57792 -3.42848,8.10368 c 2.7272,3.66224 6.38944,5.37648 11.45424,5.37648 11.92176,0 23.60976,-9.74 23.60976,-19.63585 0,-3.19472 -1.24672,-4.83104 -7.0128,-9.3504 -5.68816,-4.44144 -6.6232,-5.76608 -6.6232,-9.11664 0,-5.0648 3.81808,-9.42832 8.41536,-9.42832 3.27264,0 4.44144,1.40256 5.29856,6.38944 l 5.14272,-3.66224 c -0.46752,-4.2856 -2.80512,-6.38944 -6.93488,-6.38944 -8.02576,0 -17.1424,8.88288 -17.1424,16.59696 0,3.5064 1.63632,6.07776 6.15568,9.58416 5.29856,4.20768 6.70112,6.31152 6.70112,9.89585 0,6.07776 -5.844,11.45424 -12.62304,11.45424 -3.35056,0 -6.77904,-1.48048 -8.88288,-3.81808 -1.63632,-1.79216 -2.25968,-3.42848 -2.88304,-6.85696 l -1.24672,0.85712 z"
         style=""
         id="path5700" />
      <path
         d="m 143.51358,700.22704 5.53232,-2.25968 4.59729,-18.15537 c 0.7792,-0.54544 1.71424,-1.09088 1.87008,-1.1688 5.37648,-3.42848 8.64912,-5.14272 9.50624,-5.14272 0.54544,0 0.93504,0.54544 0.93504,1.24672 0,0.93504 -0.31168,2.41552 -1.40256,6.6232 -2.41552,9.35041 -3.35056,13.86977 -3.35056,15.97361 0,0.93504 0.31168,1.87008 1.1688,3.35056 4.2856,-2.18176 9.89584,-5.76608 14.18144,-8.88288 l 0.54544,-2.25968 c -6.6232,3.896 -7.71408,4.44144 -8.72704,4.44144 -0.70128,0 -1.1688,-0.7792 -1.1688,-2.02592 0,-1.5584 0.46752,-3.81809 1.79216,-8.88289 2.49344,-9.19456 3.74016,-13.94768 3.74016,-14.25936 0,-0.7792 -0.62336,-1.32464 -1.63632,-1.32464 -1.63632,0 -7.0128,2.96096 -16.7528,9.27248 l 2.64928,-10.44128 c 1.87008,-7.63616 2.64928,-10.05168 3.66224,-11.99968 1.09088,-2.18176 2.7272,-3.19472 4.83104,-3.19472 1.01296,0 1.63632,0.0779 4.6752,0.70128 l 3.35056,-4.75312 c -1.40256,-0.31168 -2.02592,-0.3896 -3.19472,-0.3896 -4.2856,0 -6.54528,1.1688 -12.23344,6.15568 -4.05184,3.58432 -4.6752,4.90896 -7.09073,15.1944 l -7.48032,32.18097 z"
         id="path5702"
         style="" />
      <path
         d="m 210.24842,689.39616 c -5.844,3.896 -7.0128,4.59728 -7.792,4.59728 -0.54544,0 -0.93504,-0.62336 -0.93504,-1.5584 0,-2.02592 1.87008,-10.59713 4.6752,-20.96049 0.85712,-1.1688 1.01296,-1.40256 2.25968,-2.80512 -3.74016,-0.85712 -6.46736,-1.1688 -9.81792,-1.1688 -3.19472,0 -4.6752,0.31168 -6.70112,1.5584 -2.80512,1.63632 -6.07776,4.05184 -7.09072,5.14272 -2.88304,3.27264 -6.15569,13.79184 -6.15569,20.10337 0,3.74016 1.24673,6.2336 3.19473,6.2336 1.71424,0 4.2856,-1.5584 14.0256,-8.5712 -0.7792,3.58432 -1.1688,5.99984 -1.1688,6.93488 0,1.01296 0.46752,1.63632 1.24672,1.63632 0.93504,0 0.93504,0 7.16864,-3.97392 2.25968,-1.48048 4.05184,-2.7272 7.0128,-4.90896 l 0.0779,-2.25968 z m -15.1944,0.46752 c -4.59728,3.35056 -6.93488,4.6752 -8.33744,4.6752 -1.24672,0 -2.02592,-1.40256 -2.02592,-3.896 0,-3.89601 1.24672,-9.19457 3.19472,-13.63601 1.87008,-4.2856 3.58432,-5.92192 6.2336,-5.92192 1.40256,0 3.81808,0.3896 6.6232,1.01296 -1.5584,5.92192 -2.10384,7.71408 -2.18176,8.10368 -0.46752,1.948 -0.85712,3.896 -1.32464,5.92192 -0.0779,0.3896 -0.31168,1.32464 -0.70128,2.7272 l -1.48048,1.01297 z"
         style=""
         id="path5704" />
      <path
         d="m 206.34634,716.12272 -2.3376,2.49344 c 2.25968,0.0779 10.9088,0.23376 13.2464,0.23376 0.62336,0 1.71424,0 3.66224,-0.0779 l 2.41552,-1.948 -8.72704,-0.46752 3.74016,-16.59696 c 1.5584,0.31168 2.41552,0.3896 3.74016,0.3896 3.42848,0 5.29856,-0.70128 8.41536,-3.19472 3.97392,-3.03888 5.4544,-4.44144 6.46736,-5.844 2.7272,-3.97393 5.22064,-12.31137 5.22064,-17.37617 0,-3.74016 -1.63632,-6.2336 -4.20768,-6.2336 -1.87008,0 -4.51936,1.1688 -7.71408,3.5064 l -6.38944,4.59728 c 0.23376,-0.85712 0.3896,-1.71424 0.54544,-2.18176 0.70128,-2.96096 1.09088,-4.59728 1.09088,-4.90896 0,-0.46752 -0.54544,-1.01296 -1.09088,-1.01296 -0.7792,0 -7.09072,3.35056 -12.8568,6.77904 l -0.46752,2.02592 c 1.01296,-0.3896 1.948,-0.7792 2.25968,-0.93504 2.25968,-1.01296 2.7272,-1.1688 3.35056,-1.1688 0.93504,0 1.48048,0.7792 1.48048,2.18176 0,2.80512 -4.6752,23.06433 -9.03872,39.58337 l -2.80512,0.15584 z m 13.32432,-21.73968 c 1.09088,-5.22064 2.10384,-9.50625 2.88304,-12.85681 0.0779,-0.3896 0.31168,-1.40256 0.62336,-2.80512 6.46736,-4.6752 8.80496,-5.99984 10.83088,-5.99984 1.5584,0 2.57136,1.71424 2.57136,4.2856 0,3.5064 -1.09088,7.86992 -3.03888,12.15553 -2.10384,4.59728 -4.75312,6.93488 -7.94784,6.93488 -1.948,0 -4.05184,-0.62336 -5.92192,-1.71424 z"
         style=""
         id="path5706" />
      <path
         d="m 268.4839,688.85071 c -5.844,5.06481 -9.58416,7.24657 -12.54512,7.24657 -1.948,0 -3.58432,-1.32464 -4.12976,-3.35056 -0.31168,-1.24672 -0.3896,-2.10384 -0.3896,-4.36353 3.5064,-2.18176 5.844,-3.81808 10.44128,-7.24656 4.20768,-3.19472 5.844,-5.76608 5.844,-9.27248 0,-2.7272 -1.71424,-4.36352 -4.44144,-4.36352 -1.71424,0 -2.96096,0.3896 -4.75312,1.40256 -2.96096,1.71424 -5.61024,3.81808 -7.24656,5.68816 -2.96096,3.58432 -5.61024,12.15552 -5.61024,18.46705 0,4.59728 2.41552,7.48032 6.38944,7.48032 4.59728,0 10.28544,-3.27264 16.44112,-9.42832 l 0,-2.25969 z m -16.83072,-3.27264 c 1.32464,-8.33744 4.90896,-14.8048 8.25952,-14.8048 1.32464,0 2.18176,1.32464 2.18176,3.19472 0,3.896 -2.10384,6.2336 -10.44128,11.61008 z"
         style=""
         id="path5708" />
      <path
         d="m 268.70548,693.0584 c -0.0779,0.70128 -0.15584,1.32464 -0.15584,1.79216 0,3.35056 2.3376,5.68816 5.76608,5.68816 2.41552,0 5.76608,-1.01296 8.25952,-2.41552 4.59728,-2.64928 7.4024,-6.6232 7.4024,-10.51921 0,-2.88304 -0.54544,-3.5064 -4.90896,-6.2336 -2.64928,-1.71424 -3.74016,-3.19472 -3.74016,-5.22064 0,-2.64928 2.25968,-4.98688 4.90896,-4.98688 1.79216,0 3.1168,0.85712 4.83104,3.03888 2.64928,-2.57136 2.64928,-2.57136 3.66224,-4.05184 -1.5584,-1.87008 -3.03888,-2.64928 -5.22064,-2.64928 -5.68816,0 -13.01264,6.77904 -13.01264,11.92176 0,2.41552 1.24672,4.2856 4.20768,6.38944 3.896,2.7272 4.44144,3.42849 4.44144,5.37649 0,2.80512 -3.58432,6.07776 -6.6232,6.07776 -1.71424,0 -3.03888,-0.93504 -3.81808,-2.64928 -0.54544,-1.1688 -0.70128,-2.3376 -0.7792,-4.98688 -0.85712,0.62336 -1.48048,1.01296 -1.79216,1.24672 -0.62336,0.3896 -1.32464,0.7792 -2.02592,1.24672 l -1.40256,0.93504 z"
         style=""
         id="path5710" />
    </g>
    <path
       sodipodi:type="star"
       style="opacity:1;fill:#ffffff;fill-opacity:0;stroke:#4680ea;stroke-opacity:1"
       id="path5718"
       sodipodi:sides="6"
       sodipodi:cx="150"
       sodipodi:cy="902.36208"
       sodipodi:r1="102.81135"
       sodipodi:r2="89.037239"
       sodipodi:arg1="0"
       sodipodi:arg2="0.52359878"
       inkscape:flatsided="true"
       inkscape:rounded="0"
       inkscape:randomized="0"
       d="m 252.81135,902.36208 -51.40568,89.03724 -102.811344,0 -51.405674,-89.03724 51.405674,-89.03724 102.811344,0 z"
       transform="matrix(0.971344,0,0,0.96133094,4.2984003,34.89349)" />
    <rect
       style="opacity:1;fill:#ffffff;fill-opacity:0;stroke:#cc336d;stroke-opacity:1"
       id="rect5720"
       width="211.53212"
       height="211.53212"
       x="44.23394"
       y="796.59601" />
  </g>
</svg>
