<?xml version="1.0" encoding="UTF-8" standalone="no"?>
<!-- Created with Inkscape (http://www.inkscape.org/) -->

<svg
   xmlns:dc="http://purl.org/dc/elements/1.1/"
   xmlns:cc="http://creativecommons.org/ns#"
   xmlns:rdf="http://www.w3.org/1999/02/22-rdf-syntax-ns#"
   xmlns:svg="http://www.w3.org/2000/svg"
   xmlns="http://www.w3.org/2000/svg"
   xmlns:sodipodi="http://sodipodi.sourceforge.net/DTD/sodipodi-0.dtd"
   xmlns:inkscape="http://www.inkscape.org/namespaces/inkscape"
   width="200mm"
   height="200mm"
   viewBox="0 0 708.6614 708.66145"
   id="svg2"
   version="1.1"
   inkscape:version="0.91 r13725"
   sodipodi:docname="simple.svg">
  <defs
     id="defs4" />
  <sodipodi:namedview
     id="base"
     pagecolor="#ffffff"
     bordercolor="#666666"
     borderopacity="1.0"
     inkscape:pageopacity="0.0"
     inkscape:pageshadow="2"
     inkscape:zoom="0.35"
     inkscape:cx="-49.820022"
     inkscape:cy="804.32146"
     inkscape:document-units="px"
     inkscape:current-layer="layer1"
     showgrid="false"
     inkscape:window-width="1301"
     inkscape:window-height="744"
     inkscape:window-x="65"
     inkscape:window-y="24"
     inkscape:window-maximized="1"
     units="mm"
     width="400mm" />
  <metadata
     id="metadata7">
    <rdf:RDF>
      <cc:Work
         rdf:about="">
        <dc:format>image/svg+xml</dc:format>
        <dc:type
           rdf:resource="http://purl.org/dc/dcmitype/StillImage" />
        <dc:title></dc:title>
      </cc:Work>
    </rdf:RDF>
  </metadata>
  <g
     inkscape:label="Layer 1"
     inkscape:groupmode="layer"
     id="layer1"
     transform="translate(0,-343.70099)">
    <ellipse
       style="fill:#ff0000;fill-rule:evenodd;stroke:#000000;stroke-width:1px;stroke-linecap:butt;stroke-linejoin:miter;stroke-opacity:1"
       id="path3336"
       cx="241.42856"
       cy="605.21936"
       rx="104.28571"
       ry="112.85714" />
    <path
       style="fill:none;fill-rule:evenodd;stroke:#000000;stroke-width:1px;stroke-linecap:butt;stroke-linejoin:miter;stroke-opacity:1"
       d="m 542.85715,620.93363 c -3.80953,0 -7.69303,0.74711 -11.42858,0 -1.32071,-0.26414 -1.65246,-2.2548 -2.85714,-2.85714 -0.86952,-0.43476 -7.28469,0 -8.57143,0 -6.66666,0 -13.33333,0 -20,0 -1.04924,0 -11.31359,-0.11497 -11.42857,0 -0.67343,0.67344 0.67344,2.18371 0,2.85714 -0.67343,0.67344 -2.00531,-0.42591 -2.85714,0 -1.20468,0.60234 -1.65247,2.25481 -2.85714,2.85715 -0.85184,0.42591 -2.00531,-0.42592 -2.85715,0 -0.54691,0.27345 -11.15511,10.88165 -11.42857,11.42857 -0.42592,0.85183 0.42592,2.00531 0,2.85714 -1.20468,2.40935 -4.50961,3.30493 -5.71428,5.71429 -0.42592,0.85183 0.42591,2.0053 0,2.85714 -1.20468,2.40935 -4.50961,3.30493 -5.71429,5.71428 -0.42592,0.85184 0,1.90477 0,2.85715 -0.95238,0.95238 -2.2548,1.65246 -2.85714,2.85714 -0.85184,1.70367 0.85183,4.01062 0,5.71429 -0.60234,1.20467 -2.25481,1.65246 -2.85715,2.85714 -1.14285,2.28571 1.14286,6.28571 0,8.57143 -0.42591,0.85183 -2.1837,-0.67344 -2.85714,0 -0.67343,0.67343 0,1.90476 0,2.85714 0,5.71429 0,11.42857 0,17.14286 0,3.80952 0,7.61905 0,11.42857 0,0.95238 0,1.90476 0,2.85714 0,0.95238 -0.42592,2.00531 0,2.85714 0.60234,1.20468 2.25481,1.65247 2.85714,2.85715 0.56642,1.13283 -0.5841,7.98732 0,8.57143 0.67344,0.67343 2.18371,-0.67344 2.85715,0 0.67343,0.67343 -0.42592,2.0053 0,2.85714 0.60234,1.20468 2.2548,1.65246 2.85714,2.85714 0.85184,1.70367 -0.85184,4.01062 0,5.71429 0.60234,1.20467 2.2548,1.65246 2.85714,2.85714 0.42592,0.85184 -0.42591,2.00531 0,2.85714 0.60234,1.20468 2.11004,1.73648 2.85715,2.85715 1.18128,1.77192 1.35129,4.20844 2.85714,5.71428 1.50585,1.50585 4.20844,1.3513 5.71428,2.85714 0.67344,0.67344 -0.42591,2.00531 0,2.85715 1.20468,2.40935 4.50961,3.30493 5.71429,5.71428 0.42592,0.85184 -0.42592,2.00531 0,2.85715 0.60234,1.20467 2.2548,1.65246 2.85714,2.85714 0.42592,0.85183 -0.42591,2.00531 0,2.85714 1.20468,2.40936 4.86245,3.15878 5.71429,5.71429 0.60234,1.80701 -1.05657,4.12943 0,5.71428 1.18128,1.77193 4.533,1.08522 5.71428,2.85715 1.05658,1.58485 -0.60233,3.90727 0,5.71428 0.42592,1.27775 2.43123,1.57939 2.85715,2.85714 0.79376,2.3813 -0.92127,10.50731 0,11.42858 1.34687,1.34687 4.01061,-0.85184 5.71428,0 0.85184,0.42591 0,1.90476 0,2.85714 0,1.90476 -0.60234,3.90727 0,5.71428 0.42592,1.27776 2.43123,1.57939 2.85715,2.85715 0.60233,1.80701 0,3.80952 0,5.71428 0,7.61905 -0.95239,-0.95238 2.85714,2.85715 0.67343,0.67343 0,1.90476 0,2.85714 0,0.95238 0,1.90476 0,2.85714 0,7.61905 0,15.2381 0,22.85714 0,0.95239 0.67343,2.18371 0,2.85715 -0.67344,0.67343 -2.00531,-0.42592 -2.85714,0 -1.20468,0.60234 -1.65247,2.2548 -2.85715,2.85714 -0.85183,0.42592 -2.1837,-0.67343 -2.85714,0 -0.67344,0.67344 0.67344,2.18371 0,2.85714 -1.34687,1.34687 -4.01061,-0.85183 -5.71429,0 -1.20467,0.60234 -1.65246,2.25481 -2.85714,2.85715 -0.85183,0.42591 -2.00531,-0.42592 -2.85714,0 -1.20468,0.60233 -1.65247,2.2548 -2.85714,2.85714 -1.70368,0.85183 -4.36742,-1.34687 -5.71429,0 -0.67344,0.67343 0.67344,2.18371 0,2.85714 -1.34687,1.34687 -4.01061,-0.85183 -5.71429,0 -1.20467,0.60234 -1.65246,2.25481 -2.85714,2.85714 -0.85183,0.42592 -2.00531,-0.42591 -2.85714,0 -2.40936,1.20468 -3.30493,4.50961 -5.71429,5.71429 -1.70367,0.85184 -4.01061,-0.85183 -5.71428,0 -1.20468,0.60234 -1.65247,2.2548 -2.85715,2.85714 -1.70367,0.85184 -4.01061,-0.85183 -5.71428,0 -1.20468,0.60234 -1.65247,2.25481 -2.85714,2.85715 -0.85184,0.42591 -1.90477,0 -2.85715,0 -0.95238,0.95238 -1.65246,2.2548 -2.85714,2.85714 -1.54996,0.77498 -10.64679,-0.78178 -11.42857,0 -0.67344,0.67343 0.67343,2.18371 0,2.85714 -0.67344,0.67344 -1.90476,0 -2.85714,0 -1.98726,0 -13.25248,-0.51662 -14.28572,0 -1.20468,0.60234 -1.65246,2.25481 -2.85714,2.85714 -0.75126,0.37564 -9.93451,0 -11.42857,0 -1.98726,0 -13.25248,0.51662 -14.28572,0 -1.20467,-0.60233 -1.65246,-2.2548 -2.85714,-2.85714 -2.28571,-1.14286 -6.28571,1.14286 -8.57143,0 -9.47595,-9.47595 2.69374,1.34687 -5.71428,-2.85714 -1.20468,-0.60234 -1.65247,-2.25481 -2.85715,-2.85714 -0.85183,-0.42592 -2.1837,0.67343 -2.85714,0 -3.80952,-3.80953 4.7619,-2.85715 -2.85714,-2.85715"
       id="path3338"
       inkscape:connector-curvature="0" />
    <rect
       style="fill:#0000ff;fill-rule:evenodd;stroke:#000000;stroke-width:0.48593384px;stroke-linecap:butt;stroke-linejoin:miter;stroke-opacity:1"
       id="rect3340"
       width="643.37122"
       height="117.65692"
       x="46.31303"
       y="668.44635" />
  </g>
</svg>
